{"title":"Experimenter.2015.BRRip.720p.x264.AAC-PRiSTiNE [P2PDL]","uid":13156575,"size":693425095,"categoryP":"video","categoryS":"hd___movies","magnet":"?xt=urn:btih:64f5ae1a9b72c9685f71e438e93b3a3bdb12ba5d&amp;dn=Experimenter.2015.BRRip.720p.x264.AAC-PRiSTiNE+%5BP2PDL%5D&amp;tr=udp%3A%2F%2Ftracker.leechers-paradise.org%3A6969&amp;tr=udp%3A%2F%2Fzer0day.ch%3A1337&amp;tr=udp%3A%2F%2Fopen.demonii.com%3A1337&amp;tr=udp%3A%2F%2Ftracker.coppersurfer.tk%3A6969&amp;tr=udp%3A%2F%2Fexodus.desync.com%3A6969","seeders":0,"leechers":1,"uploader":"VYTOP2PDL","files":7,"time":1452106916,"description":"____    ____ ____    ____ .___________.  ______   \r\n     /   /      /   / |           | /  __    \r\n    /   /      /   /  `---|  |----`|  |  |  | \r\n        /     _    _/       |  |     |  |  |  | \r\n       /        |  |         |  |     |  `--'  | \r\n    __/         |__|         |__|      ______/  \r\n                                                  \r\nPresenting Small Encodes with quality for years!\r\n                                                                                                   \r\n                                                                                                   \r\n\r\nExperimenter.2015.BRRip.720p.x264.AAC-PRiSTiNE\r\n\r\n\r\nGenre: Biography, Drama, History \nhttp://www.imdb.com/title/tt3726704/\r\n\r\n\r\nFormat                                   : MPEG-4\r\nFile size                                : 651 MiB\r\nDuration                                 : 1h 38mn\r\nOverall bit rate                         : 927 Kbps\r\n\r\nVideo\r\nFormat                                   : AVC\r\nBit rate                                 : 845 Kbps\r\nWidth                                    : 1 280 pixels\r\nHeight                                   : 720 pixels\r\nDisplay aspect ratio                     : 16:9\r\nFrame rate mode                          : Constant\r\nFrame rate                               : 23.976 fps\r\nBit depth                                : 8 bits\r\nStream size                              : 592 MiB (91%)\r\nWriting library                          : x264\r\n\r\nAudio\r\nFormat                                   : AAC\r\nBit rate mode                            : Variable\r\nBit rate                                 : 79.9 Kbps\r\nChannel(s)                               : 2 channels\r\nChannel positions                        : Front: L R\r\nSampling rate                            : 48.0 KHz\r\nStream size                              : 56.0 MiB (9%)\r\nLanguage                                 : English\r\n\r\nSubtitle                                 : Yes (English)\r\n\r\nScreen Shots: (Click to view)\r\n \nhttp://ititli.com/DT \nhttp://ititli.com/DW \nhttp://ititli.com/Dg \nhttp://ititli.com/Dn \nhttp://ititli.com/Dw \nhttp://ititli.com/D2 \nhttp://ititli.com/D6 \nhttp://ititli.com/D8 \nhttp://ititli.com/De\r\n\r\n----------------------------------------------------------------------------------------------------\r\n\r\n\r\nEncoder Notes: Looking For Early Access To Anything You Can Provide WEBDL, DVDScr, DVDR, BluRay,\r\nDirect Audio, Music Releases and Seedboxes. If You Got anything to offer please contact us.\r\n\r\nSupport us by donating BC - 1FgwdzPsd1y25Gea8wP1qni35uGCtmkRCD\r\n\r\nSend some love!\r\nFind us and join us!\r\n\r\nTry all new image sharing/hosting service at:     \nhttp://ititli.com/","torrent":{"xt":"urn:btih:64f5ae1a9b72c9685f71e438e93b3a3bdb12ba5d","amp;dn":"Experimenter.2015.BRRip.720p.x264.AAC-PRiSTiNE+%5BP2PDL%5D","amp;tr":["udp%3A%2F%2Ftracker.leechers-paradise.org%3A6969","udp%3A%2F%2Fzer0day.ch%3A1337","udp%3A%2F%2Fopen.demonii.com%3A1337","udp%3A%2F%2Ftracker.coppersurfer.tk%3A6969","udp%3A%2F%2Fexodus.desync.com%3A6969"],"infoHash":"64f5ae1a9b72c9685f71e438e93b3a3bdb12ba5d","infoHashBuffer":{"type":"Buffer","data":[100,245,174,26,155,114,201,104,95,113,228,56,233,59,58,59,219,18,186,93]},"announce":[],"urlList":[]}}